<svg width="40" height="40" viewBox="0 0 24 24" fill="none" stroke="currentColor" stroke-width="1.5" stroke-linecap="round" stroke-linejoin="round">
    <path d="M10 4c0-1.1.9-2 2-2h0c1.1 0 2 .9 2 2v16c0 1.1-.9 2-2 2h0c-1.1 0-2-.9-2-2V4z"/>
    <path d="M8 6h8M8 18h8"/>
    <circle cx="10" cy="8" r="0.8" fill="currentColor"/>
    <circle cx="14" cy="8" r="0.8" fill="currentColor"/>
    <circle cx="10" cy="12" r="0.8" fill="currentColor"/>
    <circle cx="14" cy="12" r="0.8" fill="currentColor"/>
    <circle cx="10" cy="16" r="0.8" fill="currentColor"/>
    <circle cx="14" cy="16" r="0.8" fill="currentColor"/>
    <path d="M12 2c1.5 0 3 1 3 2.5v1c0 1.5-1.5 2.5-3 2.5s-3-1-3-2.5v-1C9 3 10.5 2 12 2z"/>
    <path d="M12 18c1.5 0 3 1 3 2.5v1c0 1.5-1.5 2.5-3 2.5s-3-1-3-2.5v-1c0-1.5 1.5-2.5 3-2.5z"/>
</svg>

